<?xml version="1.0" encoding="UTF-8"?>
<svg id="Layer_1" xmlns="http://www.w3.org/2000/svg" baseProfile="tiny-ps" version="1.2" viewBox="0 0 121 121">
  <title>Awareness Flare</title>
  <rect width="121" height="121" fill="#fff"/>
  <g>
    <path d="M111,38.1c-.7,0-1.2.5-1.2,1.1s.5,1.1,1.2,1.1,1.2-.5,1.2-1.1-.5-1.1-1.2-1.1M111,41.9c-1.5,0-2.8-1.1-2.8-2.8s1.2-2.8,2.8-2.8,2.8,1.1,2.8,2.8-1.2,2.8-2.8,2.8M52.7,83.7c-.7,0-1.2.5-1.2,1.1s.5,1.1,1.2,1.1,1.2-.5,1.2-1.1-.5-1.1-1.2-1.1M52.7,87.5c-1.5,0-2.8-1.1-2.8-2.8s1.2-2.8,2.8-2.8,2.8,1.1,2.8,2.8-1.3,2.8-2.8,2.8M79.9,79c-.7,0-1.2.5-1.2,1.1s.5,1.1,1.2,1.1,1.2-.5,1.2-1.1-.5-1.1-1.2-1.1M79.9,82.8c-1.5,0-2.8-1.1-2.8-2.8s1.2-2.8,2.8-2.8,2.8,1.1,2.8,2.8-1.3,2.8-2.8,2.8M16.9,19.9c-.7,0-1.2.5-1.2,1.1s.5,1.1,1.2,1.1,1.2-.5,1.2-1.1-.7-1.1-1.2-1.1M16.9,23.7c-1.5,0-2.8-1.1-2.8-2.8s1.2-2.8,2.8-2.8,2.8,1.1,2.8,2.8c-.2,1.6-1.3,2.8-2.8,2.8M57.6,15.2c-.7,0-1.2.5-1.2,1.1s.5,1.1,1.2,1.1,1.2-.5,1.2-1.1-.5-1.1-1.2-1.1M57.6,19c-1.5,0-2.8-1.1-2.8-2.8s1.2-2.8,2.8-2.8,2.8,1.1,2.8,2.8-1.3,2.8-2.8,2.8M85.8,6.5c-.7,0-1.2.5-1.2,1.1s.5,1.1,1.2,1.1,1.2-.5,1.2-1.1-.5-1.1-1.2-1.1M85.8,10.5c-1.5,0-2.8-1.1-2.8-2.8s1.2-2.8,2.8-2.8,2.8,1.1,2.8,2.8-1.3,2.8-2.8,2.8M49.9,51.5l-30.4-8.8.5-1.5,29.9,10.3ZM49.9,51.5l25.4,22.7-1.2,1.1-24.2-23.9ZM22.4,120.9c.3-2.1.8-4.3,1.2-6.5.5-2.3,1-4.6,1.7-7,.5-2.5,1.3-4.7,2-7.2.7-2.5,1.5-4.7,2.3-7,.8-2.3,1.7-4.6,2.5-6.7,1.7-4.4,3.3-8.3,5-11.8,3-6.9,5.5-11.1,5.5-11.1l1.5.8s-.7,1-1.7,2.9c-1,2-2.5,4.6-4,8-1.7,3.3-3.3,7.4-5.2,11.6-.8,2.1-1.7,4.4-2.7,6.7-.8,2.3-1.7,4.6-2.5,7-.7,2.3-1.5,4.7-2.2,7-.7,2.3-1.3,4.6-1.8,6.9M50.7,51.5l4.2-28.8,1.5.3-5.7,28.5ZM51.7,50.5l28.5-37.6,1.3,1-29.9,36.6ZM49.9,51.5l-10.5-37,1.5-.3,9,37.3ZM50.7,51.5l55.2-12.3.3,1.6-55.6,10.6ZM51.9,79.2l-2-26.7,3.7,26.5-1.7.2Z" fill="#9babb2"/>
    <path d="M39.2,40.1l-17.2-14.6,1.2-1.3,16,15.9ZM58.6,35.3l9.8-25,1.7.7-11.5,24.4ZM54.7,46.6c.3.3-1.2,2.1-.8,2.6.3.5,2.7,0,2.7.5.2.5-2.2,1.3-2.2,1.8s2.2,1.3,2.2,1.8c-.2.5-2.5,0-2.7.5-.2.5,1.3,2.1.8,2.6-.3.3-2.2-1.1-2.7-.8-.5.3,0,2.6-.5,2.6-.5.2-1.3-2.1-1.8-2.1s-1.3,2.1-1.8,2.1c-.5-.2,0-2.5-.5-2.6-.5-.2-2.2,1.3-2.7.8-.3-.3,1.2-2.1.8-2.6-.3-.5-2.7,0-2.7-.5-.2-.5,2.2-1.3,2.2-1.8s-2.2-1.3-2.2-1.8c.2-.5,2.5,0,2.7-.5.2-.5-1.3-2.1-.8-2.6.3-.3,2.2,1.1,2.7.8.5-.3,0-2.6.5-2.6.5-.2,1.3,2.1,1.8,2.1s1.3-2.1,1.8-2.1c.5.2,0,2.5.5,2.6.5.3,2.3-1.1,2.7-.8" fill="#9babb2"/>
  </g>
</svg>
